<svg width="23" height="23" viewBox="0 0 23 23" fill="none" xmlns="http://www.w3.org/2000/svg">
<path d="M17.4937 13.7015C20.8103 9.97499 22.2062 6.96731 22.728 4.76186C23.0299 3.48661 23.0357 2.49028 22.958 1.79299C22.928 1.51946 22.8761 1.24878 22.8028 0.983557C22.7715 0.871369 22.734 0.760979 22.6906 0.652883C22.5857 0.417099 22.4491 0.315022 22.1846 0.227321C22.1087 0.20305 22.032 0.181471 21.9546 0.162624C21.6852 0.0973152 21.4113 0.0526169 21.1352 0.0289173C20.4307 -0.0343419 19.4244 -0.014214 18.1449 0.299207C15.9368 0.83691 12.9437 2.23005 9.28789 5.48071L5.83765 5.82289H5.82903C5 5.91533 4.22723 6.28755 3.63812 6.87817L0.213761 10.3085C0.105301 10.4178 0.0338127 10.5583 0.00935301 10.7102C-0.0151067 10.8622 0.00869319 11.0181 0.0774045 11.1558C0.146116 11.2936 0.256281 11.4063 0.392401 11.4782C0.528522 11.55 0.683747 11.5774 0.836242 11.5565L3.56193 11.1669C3.96446 11.1093 4.41299 11.1855 4.93484 11.3566C5.26836 11.4659 5.56307 11.5867 5.87647 11.7132L6.1683 11.8325C6.45007 13.0057 7.11712 14.1041 8.00124 14.9883C8.88249 15.871 9.97938 16.541 11.151 16.8242L11.2689 17.1147C11.3969 17.4281 11.5176 17.7243 11.6269 18.0592C11.7965 18.5811 11.8741 19.0311 11.8166 19.4337L11.427 22.1653C11.4065 22.3176 11.434 22.4724 11.5059 22.6082C11.5777 22.7439 11.6902 22.8538 11.8276 22.9224C11.965 22.9911 12.1204 23.015 12.2721 22.9909C12.4238 22.9667 12.5641 22.8957 12.6734 22.7879L16.0978 19.3575C16.6872 18.768 17.0581 17.9931 17.1501 17.1635L17.4937 13.7015ZM17.6518 8.38345C16.5061 9.53362 14.8773 9.76509 14.0176 8.9039C13.1579 8.04128 13.3908 6.41235 14.5366 5.26362C15.6838 4.11489 17.3111 3.88342 18.1708 4.74461C19.0319 5.60579 18.7991 7.23472 17.6533 8.38345H17.6518Z" fill="#F52248"/>
<path d="M7.48084 15.5088C8.24434 16.2815 9.11835 16.9366 10.0743 17.4525C8.46704 18.9003 2.98834 20.3682 2.80864 20.1885C2.62751 20.0059 3.86815 14.1659 5.45239 12.7412C5.9498 13.7332 6.65566 14.6821 7.48084 15.5088Z" fill="#F52248"/>
</svg>
